<mxfile host="app.diagrams.net" agent="Mozilla/5.0 (Macintosh; Intel Mac OS X 10_15_7) AppleWebKit/537.36 (KHTML, like Gecko) Chrome/129.0.0.0 Safari/537.36" version="24.7.16">
  <diagram name="Page-1" id="dfQR-kPRDJGV_gXk_9GB">
    <mxGraphModel dx="934" dy="942" grid="1" gridSize="10" guides="1" tooltips="1" connect="1" arrows="1" fold="1" page="1" pageScale="1" pageWidth="850" pageHeight="1100" math="0" shadow="0">
      <root>
        <mxCell id="0" />
        <mxCell id="1" parent="0" />
        <mxCell id="vmwlEy9ohyI4V3-F_dBx-31" value="" style="group" vertex="1" connectable="0" parent="1">
          <mxGeometry x="51" y="990" width="799" height="340" as="geometry" />
        </mxCell>
        <mxCell id="vmwlEy9ohyI4V3-F_dBx-23" style="edgeStyle=orthogonalEdgeStyle;rounded=0;orthogonalLoop=1;jettySize=auto;html=1;" edge="1" parent="vmwlEy9ohyI4V3-F_dBx-31" source="vmwlEy9ohyI4V3-F_dBx-15" target="vmwlEy9ohyI4V3-F_dBx-22">
          <mxGeometry relative="1" as="geometry" />
        </mxCell>
        <mxCell id="vmwlEy9ohyI4V3-F_dBx-15" value="The new smartphone has a powerful processor and high-resolution camera" style="rounded=1;whiteSpace=wrap;html=1;fillColor=#fff2cc;strokeColor=#d6b656;" vertex="1" parent="vmwlEy9ohyI4V3-F_dBx-31">
          <mxGeometry x="40" y="40" width="320" height="40" as="geometry" />
        </mxCell>
        <mxCell id="vmwlEy9ohyI4V3-F_dBx-24" style="edgeStyle=orthogonalEdgeStyle;rounded=0;orthogonalLoop=1;jettySize=auto;html=1;" edge="1" parent="vmwlEy9ohyI4V3-F_dBx-31" source="vmwlEy9ohyI4V3-F_dBx-17" target="vmwlEy9ohyI4V3-F_dBx-22">
          <mxGeometry relative="1" as="geometry" />
        </mxCell>
        <mxCell id="vmwlEy9ohyI4V3-F_dBx-17" value="This text is about technology" style="rounded=1;whiteSpace=wrap;html=1;fillColor=#fff2cc;strokeColor=#d6b656;" vertex="1" parent="vmwlEy9ohyI4V3-F_dBx-31">
          <mxGeometry x="400" y="40" width="320" height="40" as="geometry" />
        </mxCell>
        <mxCell id="vmwlEy9ohyI4V3-F_dBx-27" style="edgeStyle=orthogonalEdgeStyle;rounded=0;orthogonalLoop=1;jettySize=auto;html=1;" edge="1" parent="vmwlEy9ohyI4V3-F_dBx-31" source="vmwlEy9ohyI4V3-F_dBx-18" target="vmwlEy9ohyI4V3-F_dBx-26">
          <mxGeometry relative="1" as="geometry" />
        </mxCell>
        <mxCell id="vmwlEy9ohyI4V3-F_dBx-18" value="&lt;b&gt;Tokenization&lt;/b&gt;" style="rounded=1;whiteSpace=wrap;html=1;fillColor=#e1d5e7;strokeColor=#9673a6;" vertex="1" parent="vmwlEy9ohyI4V3-F_dBx-31">
          <mxGeometry x="200" y="210" width="360" height="40" as="geometry" />
        </mxCell>
        <mxCell id="vmwlEy9ohyI4V3-F_dBx-19" value="&lt;b&gt;Premise&lt;/b&gt;" style="text;html=1;align=center;verticalAlign=middle;whiteSpace=wrap;rounded=0;" vertex="1" parent="vmwlEy9ohyI4V3-F_dBx-31">
          <mxGeometry x="170" width="60" height="30" as="geometry" />
        </mxCell>
        <mxCell id="vmwlEy9ohyI4V3-F_dBx-20" value="&lt;b&gt;Hypothesis&lt;/b&gt;" style="text;html=1;align=center;verticalAlign=middle;whiteSpace=wrap;rounded=0;" vertex="1" parent="vmwlEy9ohyI4V3-F_dBx-31">
          <mxGeometry x="530" width="60" height="30" as="geometry" />
        </mxCell>
        <mxCell id="vmwlEy9ohyI4V3-F_dBx-25" style="edgeStyle=orthogonalEdgeStyle;rounded=0;orthogonalLoop=1;jettySize=auto;html=1;entryX=0.5;entryY=0;entryDx=0;entryDy=0;" edge="1" parent="vmwlEy9ohyI4V3-F_dBx-31" source="vmwlEy9ohyI4V3-F_dBx-22" target="vmwlEy9ohyI4V3-F_dBx-18">
          <mxGeometry relative="1" as="geometry" />
        </mxCell>
        <mxCell id="vmwlEy9ohyI4V3-F_dBx-22" value="[The new smartphone has a powerful processor and high-resolution camera, This text is about technology]&amp;nbsp;" style="text;html=1;align=center;verticalAlign=middle;whiteSpace=wrap;rounded=0;" vertex="1" parent="vmwlEy9ohyI4V3-F_dBx-31">
          <mxGeometry y="150" width="760" height="30" as="geometry" />
        </mxCell>
        <mxCell id="vmwlEy9ohyI4V3-F_dBx-26" value="[87, 342134, 4213, 2, 2, 324, 234, 645,&amp;nbsp; 75, 45, 89, 543, 5342, 8567, 2354, 98034, 45, 4325, 2]&amp;nbsp;" style="text;html=1;align=center;verticalAlign=middle;whiteSpace=wrap;rounded=0;" vertex="1" parent="vmwlEy9ohyI4V3-F_dBx-31">
          <mxGeometry y="310" width="760" height="30" as="geometry" />
        </mxCell>
        <mxCell id="vmwlEy9ohyI4V3-F_dBx-28" value="&lt;b&gt;&lt;font color=&quot;#007fff&quot;&gt;Input Ids&lt;/font&gt;&lt;/b&gt;" style="text;html=1;align=center;verticalAlign=middle;whiteSpace=wrap;rounded=0;" vertex="1" parent="vmwlEy9ohyI4V3-F_dBx-31">
          <mxGeometry x="719" y="310" width="60" height="30" as="geometry" />
        </mxCell>
        <mxCell id="vmwlEy9ohyI4V3-F_dBx-29" value="&lt;b&gt;&lt;font color=&quot;#007fff&quot;&gt;Sentence pair&lt;/font&gt;&lt;/b&gt;" style="text;html=1;align=center;verticalAlign=middle;whiteSpace=wrap;rounded=0;" vertex="1" parent="vmwlEy9ohyI4V3-F_dBx-31">
          <mxGeometry x="699" y="150" width="100" height="30" as="geometry" />
        </mxCell>
        <mxCell id="vmwlEy9ohyI4V3-F_dBx-134" value="" style="group" vertex="1" connectable="0" parent="1">
          <mxGeometry x="51" y="50" width="819" height="910" as="geometry" />
        </mxCell>
        <mxCell id="vmwlEy9ohyI4V3-F_dBx-133" value="" style="rounded=1;whiteSpace=wrap;html=1;arcSize=1;" vertex="1" parent="vmwlEy9ohyI4V3-F_dBx-134">
          <mxGeometry width="819" height="910" as="geometry" />
        </mxCell>
        <mxCell id="vmwlEy9ohyI4V3-F_dBx-13" value="" style="group" vertex="1" connectable="0" parent="vmwlEy9ohyI4V3-F_dBx-134">
          <mxGeometry x="29" y="30" width="770" height="850" as="geometry" />
        </mxCell>
        <mxCell id="vmwlEy9ohyI4V3-F_dBx-3" value="" style="rounded=1;whiteSpace=wrap;html=1;fillColor=#d5e8d4;strokeColor=#82b366;" vertex="1" parent="vmwlEy9ohyI4V3-F_dBx-13">
          <mxGeometry x="160" y="320" width="360" height="40" as="geometry" />
        </mxCell>
        <mxCell id="ps6qkKju_GtpTrmbrg-b-5" style="edgeStyle=orthogonalEdgeStyle;rounded=0;orthogonalLoop=1;jettySize=auto;html=1;entryX=0.5;entryY=0;entryDx=0;entryDy=0;" parent="vmwlEy9ohyI4V3-F_dBx-13" source="ps6qkKju_GtpTrmbrg-b-1" target="ps6qkKju_GtpTrmbrg-b-4" edge="1">
          <mxGeometry relative="1" as="geometry" />
        </mxCell>
        <mxCell id="ps6qkKju_GtpTrmbrg-b-1" value="The new smartphone has a powerful processor and high-resolution camera." style="rounded=1;whiteSpace=wrap;html=1;fillColor=#fff2cc;strokeColor=#d6b656;" parent="vmwlEy9ohyI4V3-F_dBx-13" vertex="1">
          <mxGeometry y="40" width="320" height="40" as="geometry" />
        </mxCell>
        <mxCell id="ps6qkKju_GtpTrmbrg-b-6" style="edgeStyle=orthogonalEdgeStyle;rounded=0;orthogonalLoop=1;jettySize=auto;html=1;entryX=0.5;entryY=0;entryDx=0;entryDy=0;" parent="vmwlEy9ohyI4V3-F_dBx-13" source="ps6qkKju_GtpTrmbrg-b-2" target="ps6qkKju_GtpTrmbrg-b-4" edge="1">
          <mxGeometry relative="1" as="geometry" />
        </mxCell>
        <mxCell id="ps6qkKju_GtpTrmbrg-b-2" value="This text is about technology" style="rounded=1;whiteSpace=wrap;html=1;fillColor=#fff2cc;strokeColor=#d6b656;" parent="vmwlEy9ohyI4V3-F_dBx-13" vertex="1">
          <mxGeometry x="360" y="40" width="320" height="40" as="geometry" />
        </mxCell>
        <mxCell id="ps6qkKju_GtpTrmbrg-b-8" style="edgeStyle=orthogonalEdgeStyle;rounded=0;orthogonalLoop=1;jettySize=auto;html=1;entryX=0.5;entryY=0;entryDx=0;entryDy=0;" parent="vmwlEy9ohyI4V3-F_dBx-13" source="ps6qkKju_GtpTrmbrg-b-4" target="ps6qkKju_GtpTrmbrg-b-7" edge="1">
          <mxGeometry relative="1" as="geometry" />
        </mxCell>
        <mxCell id="ps6qkKju_GtpTrmbrg-b-4" value="&lt;b&gt;Tokenization&lt;/b&gt;" style="rounded=1;whiteSpace=wrap;html=1;fillColor=#e1d5e7;strokeColor=#9673a6;" parent="vmwlEy9ohyI4V3-F_dBx-13" vertex="1">
          <mxGeometry x="160" y="160" width="360" height="40" as="geometry" />
        </mxCell>
        <mxCell id="vmwlEy9ohyI4V3-F_dBx-5" style="edgeStyle=orthogonalEdgeStyle;rounded=0;orthogonalLoop=1;jettySize=auto;html=1;entryX=0.5;entryY=0;entryDx=0;entryDy=0;" edge="1" parent="vmwlEy9ohyI4V3-F_dBx-13" source="ps6qkKju_GtpTrmbrg-b-7" target="vmwlEy9ohyI4V3-F_dBx-3">
          <mxGeometry relative="1" as="geometry" />
        </mxCell>
        <mxCell id="ps6qkKju_GtpTrmbrg-b-7" value="&lt;b&gt;NLI Model Logits&lt;/b&gt;" style="rounded=1;whiteSpace=wrap;html=1;fillColor=#e1d5e7;strokeColor=#9673a6;" parent="vmwlEy9ohyI4V3-F_dBx-13" vertex="1">
          <mxGeometry x="160" y="240" width="360" height="40" as="geometry" />
        </mxCell>
        <mxCell id="ps6qkKju_GtpTrmbrg-b-16" style="edgeStyle=orthogonalEdgeStyle;rounded=0;orthogonalLoop=1;jettySize=auto;html=1;" parent="vmwlEy9ohyI4V3-F_dBx-13" source="ps6qkKju_GtpTrmbrg-b-10" target="ps6qkKju_GtpTrmbrg-b-15" edge="1">
          <mxGeometry relative="1" as="geometry" />
        </mxCell>
        <mxCell id="ps6qkKju_GtpTrmbrg-b-10" value="&lt;b&gt;Contradiction&lt;/b&gt;" style="rounded=0;whiteSpace=wrap;html=1;" parent="vmwlEy9ohyI4V3-F_dBx-13" vertex="1">
          <mxGeometry x="190" y="330" width="90" height="20" as="geometry" />
        </mxCell>
        <mxCell id="ps6qkKju_GtpTrmbrg-b-17" style="edgeStyle=orthogonalEdgeStyle;rounded=0;orthogonalLoop=1;jettySize=auto;html=1;entryX=0.5;entryY=0;entryDx=0;entryDy=0;" parent="vmwlEy9ohyI4V3-F_dBx-13" source="ps6qkKju_GtpTrmbrg-b-11" target="ps6qkKju_GtpTrmbrg-b-15" edge="1">
          <mxGeometry relative="1" as="geometry" />
        </mxCell>
        <mxCell id="ps6qkKju_GtpTrmbrg-b-11" value="&lt;b&gt;Entailment&lt;/b&gt;" style="rounded=0;whiteSpace=wrap;html=1;" parent="vmwlEy9ohyI4V3-F_dBx-13" vertex="1">
          <mxGeometry x="400" y="330" width="90" height="20" as="geometry" />
        </mxCell>
        <mxCell id="ps6qkKju_GtpTrmbrg-b-12" value="&lt;b&gt;Neutral&lt;/b&gt;" style="rounded=0;whiteSpace=wrap;html=1;fillColor=#f8cecc;strokeColor=#b85450;" parent="vmwlEy9ohyI4V3-F_dBx-13" vertex="1">
          <mxGeometry x="300" y="330" width="90" height="20" as="geometry" />
        </mxCell>
        <mxCell id="ps6qkKju_GtpTrmbrg-b-23" style="edgeStyle=orthogonalEdgeStyle;rounded=0;orthogonalLoop=1;jettySize=auto;html=1;" parent="vmwlEy9ohyI4V3-F_dBx-13" source="ps6qkKju_GtpTrmbrg-b-15" edge="1">
          <mxGeometry relative="1" as="geometry">
            <mxPoint x="345" y="760" as="targetPoint" />
          </mxGeometry>
        </mxCell>
        <mxCell id="ps6qkKju_GtpTrmbrg-b-15" value="&lt;b&gt;Softmax Function&lt;/b&gt;" style="rounded=1;whiteSpace=wrap;html=1;fillColor=#e1d5e7;strokeColor=#9673a6;" parent="vmwlEy9ohyI4V3-F_dBx-13" vertex="1">
          <mxGeometry x="195" y="580" width="300" height="40" as="geometry" />
        </mxCell>
        <mxCell id="ps6qkKju_GtpTrmbrg-b-25" style="edgeStyle=orthogonalEdgeStyle;rounded=0;orthogonalLoop=1;jettySize=auto;html=1;dashed=1;entryX=0.5;entryY=0;entryDx=0;entryDy=0;" parent="vmwlEy9ohyI4V3-F_dBx-13" source="ps6qkKju_GtpTrmbrg-b-24" target="ps6qkKju_GtpTrmbrg-b-31" edge="1">
          <mxGeometry relative="1" as="geometry">
            <Array as="points">
              <mxPoint x="600" y="610" />
              <mxPoint x="600" y="670" />
              <mxPoint x="345" y="670" />
            </Array>
            <mxPoint x="345" y="720" as="targetPoint" />
          </mxGeometry>
        </mxCell>
        <mxCell id="vmwlEy9ohyI4V3-F_dBx-10" value="Threshold" style="edgeLabel;html=1;align=center;verticalAlign=middle;resizable=0;points=[];fontStyle=1" vertex="1" connectable="0" parent="ps6qkKju_GtpTrmbrg-b-25">
          <mxGeometry x="0.1803" y="1" relative="1" as="geometry">
            <mxPoint as="offset" />
          </mxGeometry>
        </mxCell>
        <mxCell id="ps6qkKju_GtpTrmbrg-b-26" style="edgeStyle=orthogonalEdgeStyle;rounded=0;orthogonalLoop=1;jettySize=auto;html=1;entryX=0.5;entryY=0;entryDx=0;entryDy=0;dashed=1;" parent="vmwlEy9ohyI4V3-F_dBx-13" source="ps6qkKju_GtpTrmbrg-b-24" target="ps6qkKju_GtpTrmbrg-b-15" edge="1">
          <mxGeometry relative="1" as="geometry">
            <Array as="points">
              <mxPoint x="600" y="610" />
              <mxPoint x="600" y="520" />
              <mxPoint x="345" y="520" />
            </Array>
          </mxGeometry>
        </mxCell>
        <mxCell id="vmwlEy9ohyI4V3-F_dBx-11" value="&lt;b&gt;One/Multi Label Classification&lt;/b&gt;" style="edgeLabel;html=1;align=center;verticalAlign=middle;resizable=0;points=[];" vertex="1" connectable="0" parent="ps6qkKju_GtpTrmbrg-b-26">
          <mxGeometry x="0.3283" relative="1" as="geometry">
            <mxPoint as="offset" />
          </mxGeometry>
        </mxCell>
        <mxCell id="ps6qkKju_GtpTrmbrg-b-24" value="" style="sketch=0;outlineConnect=0;fontColor=#232F3E;gradientColor=none;fillColor=#232F3D;strokeColor=none;dashed=0;verticalLabelPosition=bottom;verticalAlign=top;align=center;html=1;fontSize=12;fontStyle=0;aspect=fixed;pointerEvents=1;shape=mxgraph.aws4.user;" parent="vmwlEy9ohyI4V3-F_dBx-13" vertex="1">
          <mxGeometry x="711" y="590" width="40" height="40" as="geometry" />
        </mxCell>
        <mxCell id="ps6qkKju_GtpTrmbrg-b-27" value="&lt;b&gt;Premise&lt;/b&gt;" style="text;html=1;align=center;verticalAlign=middle;whiteSpace=wrap;rounded=0;" parent="vmwlEy9ohyI4V3-F_dBx-13" vertex="1">
          <mxGeometry x="130" width="60" height="30" as="geometry" />
        </mxCell>
        <mxCell id="ps6qkKju_GtpTrmbrg-b-28" value="&lt;b&gt;Hypothesis&lt;/b&gt;" style="text;html=1;align=center;verticalAlign=middle;whiteSpace=wrap;rounded=0;" parent="vmwlEy9ohyI4V3-F_dBx-13" vertex="1">
          <mxGeometry x="490" width="60" height="30" as="geometry" />
        </mxCell>
        <mxCell id="vmwlEy9ohyI4V3-F_dBx-6" value="" style="group" vertex="1" connectable="0" parent="vmwlEy9ohyI4V3-F_dBx-13">
          <mxGeometry x="280" y="760" width="130" height="20" as="geometry" />
        </mxCell>
        <mxCell id="ps6qkKju_GtpTrmbrg-b-31" value="&amp;nbsp; &amp;nbsp; &lt;b&gt;Entailment&lt;/b&gt;" style="rounded=0;whiteSpace=wrap;html=1;container=0;align=left;" parent="vmwlEy9ohyI4V3-F_dBx-6" vertex="1">
          <mxGeometry width="130" height="20" as="geometry" />
        </mxCell>
        <mxCell id="ps6qkKju_GtpTrmbrg-b-32" value="54%" style="rounded=0;whiteSpace=wrap;html=1;container=0;fillColor=#d5e8d4;strokeColor=#82b366;" parent="vmwlEy9ohyI4V3-F_dBx-6" vertex="1">
          <mxGeometry x="90" width="40" height="20" as="geometry" />
        </mxCell>
        <mxCell id="vmwlEy9ohyI4V3-F_dBx-8" value="Technology" style="rounded=1;whiteSpace=wrap;html=1;fillColor=#d5e8d4;strokeColor=#82b366;" vertex="1" parent="vmwlEy9ohyI4V3-F_dBx-13">
          <mxGeometry x="280" y="820" width="130" height="30" as="geometry" />
        </mxCell>
        <mxCell id="vmwlEy9ohyI4V3-F_dBx-9" style="edgeStyle=orthogonalEdgeStyle;rounded=0;orthogonalLoop=1;jettySize=auto;html=1;entryX=0.5;entryY=0;entryDx=0;entryDy=0;" edge="1" parent="vmwlEy9ohyI4V3-F_dBx-13" source="ps6qkKju_GtpTrmbrg-b-31" target="vmwlEy9ohyI4V3-F_dBx-8">
          <mxGeometry relative="1" as="geometry" />
        </mxCell>
        <mxCell id="vmwlEy9ohyI4V3-F_dBx-12" value="&lt;b&gt;User&lt;/b&gt;" style="text;html=1;align=center;verticalAlign=middle;whiteSpace=wrap;rounded=0;" vertex="1" parent="vmwlEy9ohyI4V3-F_dBx-13">
          <mxGeometry x="701" y="630" width="60" height="30" as="geometry" />
        </mxCell>
        <mxCell id="vmwlEy9ohyI4V3-F_dBx-135" value="" style="group" vertex="1" connectable="0" parent="1">
          <mxGeometry x="277" y="1530" width="360" height="220" as="geometry" />
        </mxCell>
        <mxCell id="vmwlEy9ohyI4V3-F_dBx-33" style="edgeStyle=orthogonalEdgeStyle;rounded=0;orthogonalLoop=1;jettySize=auto;html=1;entryX=0.5;entryY=0;entryDx=0;entryDy=0;" edge="1" parent="vmwlEy9ohyI4V3-F_dBx-135" source="vmwlEy9ohyI4V3-F_dBx-30" target="vmwlEy9ohyI4V3-F_dBx-32">
          <mxGeometry relative="1" as="geometry" />
        </mxCell>
        <mxCell id="vmwlEy9ohyI4V3-F_dBx-30" value="&lt;b&gt;&lt;font color=&quot;#007fff&quot;&gt;Input Ids&lt;/font&gt;&lt;/b&gt;" style="text;html=1;align=center;verticalAlign=middle;whiteSpace=wrap;rounded=0;" vertex="1" parent="vmwlEy9ohyI4V3-F_dBx-135">
          <mxGeometry x="150" width="60" height="30" as="geometry" />
        </mxCell>
        <mxCell id="vmwlEy9ohyI4V3-F_dBx-38" style="edgeStyle=orthogonalEdgeStyle;rounded=0;orthogonalLoop=1;jettySize=auto;html=1;entryX=0.5;entryY=0;entryDx=0;entryDy=0;" edge="1" parent="vmwlEy9ohyI4V3-F_dBx-135" source="vmwlEy9ohyI4V3-F_dBx-32" target="vmwlEy9ohyI4V3-F_dBx-37">
          <mxGeometry relative="1" as="geometry" />
        </mxCell>
        <mxCell id="vmwlEy9ohyI4V3-F_dBx-32" value="&lt;b&gt;NLI Model Logits&lt;/b&gt;" style="rounded=1;whiteSpace=wrap;html=1;fillColor=#e1d5e7;strokeColor=#9673a6;" vertex="1" parent="vmwlEy9ohyI4V3-F_dBx-135">
          <mxGeometry y="70" width="360" height="40" as="geometry" />
        </mxCell>
        <mxCell id="vmwlEy9ohyI4V3-F_dBx-34" value="&lt;b&gt;Contradiction&lt;/b&gt;" style="rounded=0;whiteSpace=wrap;html=1;" vertex="1" parent="vmwlEy9ohyI4V3-F_dBx-135">
          <mxGeometry x="30" y="200" width="90" height="20" as="geometry" />
        </mxCell>
        <mxCell id="vmwlEy9ohyI4V3-F_dBx-35" value="&lt;b&gt;Entailment&lt;/b&gt;" style="rounded=0;whiteSpace=wrap;html=1;" vertex="1" parent="vmwlEy9ohyI4V3-F_dBx-135">
          <mxGeometry x="240" y="200" width="90" height="20" as="geometry" />
        </mxCell>
        <mxCell id="vmwlEy9ohyI4V3-F_dBx-36" value="&lt;b&gt;Neutral&lt;/b&gt;" style="rounded=0;whiteSpace=wrap;html=1;fillColor=#f8cecc;strokeColor=#b85450;" vertex="1" parent="vmwlEy9ohyI4V3-F_dBx-135">
          <mxGeometry x="140" y="200" width="90" height="20" as="geometry" />
        </mxCell>
        <mxCell id="vmwlEy9ohyI4V3-F_dBx-37" value="[-2.5443,&amp;nbsp; 0.8770,&amp;nbsp; 1.3904]" style="text;html=1;align=center;verticalAlign=middle;whiteSpace=wrap;rounded=0;" vertex="1" parent="vmwlEy9ohyI4V3-F_dBx-135">
          <mxGeometry x="32" y="160" width="297" height="30" as="geometry" />
        </mxCell>
        <mxCell id="vmwlEy9ohyI4V3-F_dBx-137" value="" style="group" vertex="1" connectable="0" parent="1">
          <mxGeometry x="106" y="1850" width="680" height="870" as="geometry" />
        </mxCell>
        <mxCell id="vmwlEy9ohyI4V3-F_dBx-136" value="" style="rounded=1;whiteSpace=wrap;html=1;arcSize=2;" vertex="1" parent="vmwlEy9ohyI4V3-F_dBx-137">
          <mxGeometry width="680" height="870" as="geometry" />
        </mxCell>
        <mxCell id="vmwlEy9ohyI4V3-F_dBx-39" value="&lt;span style=&quot;color: rgb(0, 0, 0); font-family: Helvetica; font-size: 12px; font-style: normal; font-variant-ligatures: normal; font-variant-caps: normal; font-weight: 400; letter-spacing: normal; orphans: 2; text-align: center; text-indent: 0px; text-transform: none; widows: 2; word-spacing: 0px; -webkit-text-stroke-width: 0px; white-space: normal; background-color: rgb(251, 251, 251); text-decoration-thickness: initial; text-decoration-style: initial; text-decoration-color: initial; display: inline !important; float: none;&quot;&gt;[The new smartphone has a powerful processor and high-resolution camera, This text is about technology]&amp;nbsp;&lt;/span&gt;" style="text;whiteSpace=wrap;html=1;" vertex="1" parent="vmwlEy9ohyI4V3-F_dBx-137">
          <mxGeometry x="54" y="30" width="570" height="30" as="geometry" />
        </mxCell>
        <mxCell id="vmwlEy9ohyI4V3-F_dBx-40" value="&lt;span style=&quot;color: rgb(0, 0, 0); font-family: Helvetica; font-size: 12px; font-style: normal; font-variant-ligatures: normal; font-variant-caps: normal; font-weight: 400; letter-spacing: normal; orphans: 2; text-align: center; text-indent: 0px; text-transform: none; widows: 2; word-spacing: 0px; -webkit-text-stroke-width: 0px; white-space: normal; background-color: rgb(251, 251, 251); text-decoration-thickness: initial; text-decoration-style: initial; text-decoration-color: initial; display: inline !important; float: none;&quot;&gt;[The new smartphone has a powerful processor and high-resolution camera, This text is about food]&amp;nbsp;&lt;/span&gt;" style="text;whiteSpace=wrap;html=1;" vertex="1" parent="vmwlEy9ohyI4V3-F_dBx-137">
          <mxGeometry x="54" y="60" width="570" height="30" as="geometry" />
        </mxCell>
        <mxCell id="vmwlEy9ohyI4V3-F_dBx-43" style="edgeStyle=orthogonalEdgeStyle;rounded=0;orthogonalLoop=1;jettySize=auto;html=1;entryX=0.5;entryY=0;entryDx=0;entryDy=0;" edge="1" parent="vmwlEy9ohyI4V3-F_dBx-137" source="vmwlEy9ohyI4V3-F_dBx-41" target="vmwlEy9ohyI4V3-F_dBx-42">
          <mxGeometry relative="1" as="geometry" />
        </mxCell>
        <mxCell id="vmwlEy9ohyI4V3-F_dBx-41" value="&lt;span style=&quot;color: rgb(0, 0, 0); font-family: Helvetica; font-size: 12px; font-style: normal; font-variant-ligatures: normal; font-variant-caps: normal; font-weight: 400; letter-spacing: normal; orphans: 2; text-align: center; text-indent: 0px; text-transform: none; widows: 2; word-spacing: 0px; -webkit-text-stroke-width: 0px; white-space: normal; background-color: rgb(251, 251, 251); text-decoration-thickness: initial; text-decoration-style: initial; text-decoration-color: initial; display: inline !important; float: none;&quot;&gt;[The new smartphone has a powerful processor and high-resolution camera, This text is about sports]&amp;nbsp;&lt;/span&gt;" style="text;whiteSpace=wrap;html=1;" vertex="1" parent="vmwlEy9ohyI4V3-F_dBx-137">
          <mxGeometry x="54" y="90" width="570" height="30" as="geometry" />
        </mxCell>
        <mxCell id="vmwlEy9ohyI4V3-F_dBx-60" style="edgeStyle=orthogonalEdgeStyle;rounded=0;orthogonalLoop=1;jettySize=auto;html=1;" edge="1" parent="vmwlEy9ohyI4V3-F_dBx-137" source="vmwlEy9ohyI4V3-F_dBx-42" target="vmwlEy9ohyI4V3-F_dBx-59">
          <mxGeometry relative="1" as="geometry" />
        </mxCell>
        <mxCell id="vmwlEy9ohyI4V3-F_dBx-42" value="&lt;b&gt;Tokenization&lt;/b&gt;" style="rounded=1;whiteSpace=wrap;html=1;fillColor=#e1d5e7;strokeColor=#9673a6;" vertex="1" parent="vmwlEy9ohyI4V3-F_dBx-137">
          <mxGeometry x="159" y="180" width="360" height="40" as="geometry" />
        </mxCell>
        <mxCell id="vmwlEy9ohyI4V3-F_dBx-58" value="&lt;b style=&quot;forced-color-adjust: none; color: rgb(0, 0, 0); font-family: Helvetica; font-size: 12px; font-style: normal; font-variant-ligatures: normal; font-variant-caps: normal; letter-spacing: normal; orphans: 2; text-align: center; text-indent: 0px; text-transform: none; widows: 2; word-spacing: 0px; -webkit-text-stroke-width: 0px; white-space: normal; background-color: rgb(251, 251, 251); text-decoration-thickness: initial; text-decoration-style: initial; text-decoration-color: initial;&quot;&gt;&lt;font color=&quot;#007fff&quot; style=&quot;forced-color-adjust: none;&quot;&gt;Sentence pair&lt;/font&gt;&lt;/b&gt;" style="text;whiteSpace=wrap;html=1;" vertex="1" parent="vmwlEy9ohyI4V3-F_dBx-137">
          <mxGeometry x="374" y="130" width="110" height="40" as="geometry" />
        </mxCell>
        <mxCell id="vmwlEy9ohyI4V3-F_dBx-63" style="edgeStyle=orthogonalEdgeStyle;rounded=0;orthogonalLoop=1;jettySize=auto;html=1;" edge="1" parent="vmwlEy9ohyI4V3-F_dBx-137" source="vmwlEy9ohyI4V3-F_dBx-59" target="vmwlEy9ohyI4V3-F_dBx-62">
          <mxGeometry relative="1" as="geometry" />
        </mxCell>
        <mxCell id="vmwlEy9ohyI4V3-F_dBx-59" value="&lt;b&gt;NLI Model Logits&lt;/b&gt;" style="rounded=1;whiteSpace=wrap;html=1;fillColor=#e1d5e7;strokeColor=#9673a6;" vertex="1" parent="vmwlEy9ohyI4V3-F_dBx-137">
          <mxGeometry x="159" y="260" width="360" height="40" as="geometry" />
        </mxCell>
        <mxCell id="vmwlEy9ohyI4V3-F_dBx-61" value="&lt;b&gt;&lt;font color=&quot;#007fff&quot;&gt;Input Ids&lt;/font&gt;&lt;/b&gt;" style="text;html=1;align=center;verticalAlign=middle;whiteSpace=wrap;rounded=0;" vertex="1" parent="vmwlEy9ohyI4V3-F_dBx-137">
          <mxGeometry x="381" y="230" width="60" height="30" as="geometry" />
        </mxCell>
        <mxCell id="vmwlEy9ohyI4V3-F_dBx-62" value="&lt;div style=&quot;font-size: 16px;&quot;&gt;&lt;font style=&quot;font-size: 16px;&quot;&gt;&amp;nbsp; &amp;nbsp; &amp;nbsp; &amp;nbsp; [&amp;nbsp; &lt;font color=&quot;#007fff&quot;&gt;-3.0407&lt;/font&gt;,&amp;nbsp; &amp;nbsp; 1.2394,&amp;nbsp; &amp;nbsp;&amp;nbsp;&lt;font color=&quot;#007fff&quot;&gt;1.0576&lt;/font&gt;&lt;font color=&quot;#00cc00&quot;&gt;&amp;nbsp;&amp;nbsp;&lt;/font&gt;],&lt;/font&gt;&lt;/div&gt;&lt;div style=&quot;font-size: 16px;&quot;&gt;&lt;font style=&quot;font-size: 16px;&quot;&gt;&amp;nbsp; &amp;nbsp; &amp;nbsp; &amp;nbsp; [&amp;nbsp; &amp;nbsp;&lt;font color=&quot;#007fff&quot;&gt;4.1841&lt;/font&gt;,&amp;nbsp; &amp;nbsp;-0.7971,&amp;nbsp; &lt;font color=&quot;#007fff&quot;&gt;&amp;nbsp;-3.3593&amp;nbsp;&lt;/font&gt;&lt;font color=&quot;#00cc00&quot;&gt;&amp;nbsp;&lt;/font&gt;],&lt;/font&gt;&lt;/div&gt;&lt;div style=&quot;font-size: 16px;&quot;&gt;&lt;font style=&quot;font-size: 16px;&quot;&gt;&amp;nbsp; &amp;nbsp; &amp;nbsp; &amp;nbsp;[&amp;nbsp; &amp;nbsp;&lt;font color=&quot;#007fff&quot;&gt;3.1733&lt;/font&gt;,&amp;nbsp; &amp;nbsp;-0.3798,&amp;nbsp; &amp;nbsp;&lt;font color=&quot;#007fff&quot;&gt;-2.7141&amp;nbsp;&lt;/font&gt;&lt;font color=&quot;#00cc00&quot;&gt;&amp;nbsp;&lt;/font&gt;]&lt;/font&gt;&lt;/div&gt;" style="text;html=1;align=center;verticalAlign=middle;resizable=0;points=[];autosize=1;strokeColor=none;fillColor=none;" vertex="1" parent="vmwlEy9ohyI4V3-F_dBx-137">
          <mxGeometry x="194" y="360" width="290" height="70" as="geometry" />
        </mxCell>
        <mxCell id="vmwlEy9ohyI4V3-F_dBx-121" style="edgeStyle=orthogonalEdgeStyle;rounded=0;orthogonalLoop=1;jettySize=auto;html=1;" edge="1" parent="vmwlEy9ohyI4V3-F_dBx-137" source="vmwlEy9ohyI4V3-F_dBx-64" target="vmwlEy9ohyI4V3-F_dBx-105">
          <mxGeometry relative="1" as="geometry" />
        </mxCell>
        <mxCell id="vmwlEy9ohyI4V3-F_dBx-64" value="&lt;b&gt;Contradiction&lt;/b&gt;" style="rounded=0;whiteSpace=wrap;html=1;" vertex="1" parent="vmwlEy9ohyI4V3-F_dBx-137">
          <mxGeometry x="189" y="450" width="90" height="20" as="geometry" />
        </mxCell>
        <mxCell id="vmwlEy9ohyI4V3-F_dBx-122" style="edgeStyle=orthogonalEdgeStyle;rounded=0;orthogonalLoop=1;jettySize=auto;html=1;" edge="1" parent="vmwlEy9ohyI4V3-F_dBx-137" source="vmwlEy9ohyI4V3-F_dBx-65" target="vmwlEy9ohyI4V3-F_dBx-105">
          <mxGeometry relative="1" as="geometry" />
        </mxCell>
        <mxCell id="vmwlEy9ohyI4V3-F_dBx-65" value="&lt;b&gt;Entailment&lt;/b&gt;" style="rounded=0;whiteSpace=wrap;html=1;" vertex="1" parent="vmwlEy9ohyI4V3-F_dBx-137">
          <mxGeometry x="399" y="450" width="90" height="20" as="geometry" />
        </mxCell>
        <mxCell id="vmwlEy9ohyI4V3-F_dBx-66" value="&lt;b&gt;Neutral&lt;/b&gt;" style="rounded=0;whiteSpace=wrap;html=1;fillColor=#f8cecc;strokeColor=#b85450;" vertex="1" parent="vmwlEy9ohyI4V3-F_dBx-137">
          <mxGeometry x="299" y="450" width="90" height="20" as="geometry" />
        </mxCell>
        <mxCell id="vmwlEy9ohyI4V3-F_dBx-67" value="&lt;b&gt;&lt;font color=&quot;#007fff&quot;&gt;logits&lt;/font&gt;&lt;/b&gt;" style="text;html=1;align=center;verticalAlign=middle;whiteSpace=wrap;rounded=0;" vertex="1" parent="vmwlEy9ohyI4V3-F_dBx-137">
          <mxGeometry x="381" y="318" width="60" height="30" as="geometry" />
        </mxCell>
        <mxCell id="vmwlEy9ohyI4V3-F_dBx-125" style="edgeStyle=orthogonalEdgeStyle;rounded=0;orthogonalLoop=1;jettySize=auto;html=1;" edge="1" parent="vmwlEy9ohyI4V3-F_dBx-137" source="vmwlEy9ohyI4V3-F_dBx-105" target="vmwlEy9ohyI4V3-F_dBx-124">
          <mxGeometry relative="1" as="geometry" />
        </mxCell>
        <mxCell id="vmwlEy9ohyI4V3-F_dBx-105" value="&lt;b&gt;Softmax Function&lt;/b&gt;" style="rounded=1;whiteSpace=wrap;html=1;fillColor=#e1d5e7;strokeColor=#9673a6;" vertex="1" parent="vmwlEy9ohyI4V3-F_dBx-137">
          <mxGeometry x="164" y="620" width="360" height="40" as="geometry" />
        </mxCell>
        <mxCell id="vmwlEy9ohyI4V3-F_dBx-124" value="&lt;div style=&quot;font-size: 16px;&quot;&gt;&lt;div&gt;&amp;nbsp;[1.6330e-02,&amp;nbsp; &amp;nbsp;&amp;nbsp;&lt;font color=&quot;#00cc00&quot;&gt;9.8367e-01&lt;/font&gt;],&lt;/div&gt;&lt;div&gt;&amp;nbsp;[9.9947e-01,&amp;nbsp; &amp;nbsp;&amp;nbsp;&lt;font color=&quot;#97d077&quot;&gt;5.2929e-04&lt;/font&gt;],&lt;/div&gt;&lt;div&gt;&lt;span style=&quot;background-color: initial;&quot;&gt;[9.9723e-01,&amp;nbsp; &amp;nbsp;&amp;nbsp;&lt;font color=&quot;#97d077&quot;&gt;2.7665e-03&lt;/font&gt;]&lt;/span&gt;&lt;/div&gt;&lt;/div&gt;" style="text;html=1;align=center;verticalAlign=middle;resizable=0;points=[];autosize=1;strokeColor=none;fillColor=none;" vertex="1" parent="vmwlEy9ohyI4V3-F_dBx-137">
          <mxGeometry x="229.5" y="730" width="230" height="70" as="geometry" />
        </mxCell>
        <mxCell id="vmwlEy9ohyI4V3-F_dBx-126" value="&lt;b&gt;Entailment&lt;/b&gt;" style="rounded=0;whiteSpace=wrap;html=1;" vertex="1" parent="vmwlEy9ohyI4V3-F_dBx-137">
          <mxGeometry x="351" y="810" width="90" height="20" as="geometry" />
        </mxCell>
        <mxCell id="vmwlEy9ohyI4V3-F_dBx-127" value="" style="rounded=1;whiteSpace=wrap;html=1;fillColor=none;dashed=1;strokeColor=#82b366;" vertex="1" parent="vmwlEy9ohyI4V3-F_dBx-137">
          <mxGeometry x="344" y="730" width="110" height="70" as="geometry" />
        </mxCell>
        <mxCell id="vmwlEy9ohyI4V3-F_dBx-129" value="&lt;b&gt;Technology&lt;/b&gt;" style="rounded=0;whiteSpace=wrap;html=1;fillColor=#d5e8d4;strokeColor=#82b366;" vertex="1" parent="vmwlEy9ohyI4V3-F_dBx-137">
          <mxGeometry x="474" y="735" width="90" height="20" as="geometry" />
        </mxCell>
        <mxCell id="vmwlEy9ohyI4V3-F_dBx-131" value="&lt;b&gt;Food&lt;/b&gt;" style="rounded=0;whiteSpace=wrap;html=1;" vertex="1" parent="vmwlEy9ohyI4V3-F_dBx-137">
          <mxGeometry x="474" y="758" width="90" height="20" as="geometry" />
        </mxCell>
        <mxCell id="vmwlEy9ohyI4V3-F_dBx-132" value="&lt;b&gt;Sports&lt;/b&gt;" style="rounded=0;whiteSpace=wrap;html=1;" vertex="1" parent="vmwlEy9ohyI4V3-F_dBx-137">
          <mxGeometry x="475" y="781" width="90" height="20" as="geometry" />
        </mxCell>
      </root>
    </mxGraphModel>
  </diagram>
</mxfile>
